<svg width="1312" height="191" viewBox="0 0 1312 191" fill="none" xmlns="http://www.w3.org/2000/svg">
<g clip-path="url(#clip0_5075_6415)">
<path d="M31.5635 190.926C14.16 190.926 0 176.766 0 159.363V31.7443C0 14.3407 14.16 0.203125 31.5635 0.203125H250.338V32.8404H35.9927V158.088H214.323V111.872H85.3624V79.0336H250.316V190.904H31.5635V190.926Z" fill="#1F1F1F" fill-opacity="0.1"/>
<path d="M335.88 190.926C318.476 190.926 304.316 176.766 304.316 159.363V0.203125H547.653V32.8404H340.309V79.056H541.904V111.895H340.309V158.11H547.653V190.949H335.88V190.926Z" fill="#1F1F1F" fill-opacity="0.1"/>
<path d="M922.702 190.925C905.298 190.925 891.116 176.765 891.116 159.339V0H927.108V158.086H1106.45V190.925H922.679H922.702Z" fill="#1F1F1F" fill-opacity="0.1"/>
<path d="M628.653 190.926C611.25 190.926 597.09 176.766 597.09 159.363V0.203125H840.426V32.8404H633.083V79.056H834.677V111.895H633.083V158.11H840.426V190.949H628.631L628.653 190.926Z" fill="#1F1F1F" fill-opacity="0.1"/>
<path d="M1158.14 190.925V117.865L1040.28 0H1086.72L1176.15 89.4337L1265.56 0H1312L1194.13 117.865V190.925H1158.14Z" fill="#1F1F1F" fill-opacity="0.1"/>
</g>
<defs>
<clipPath id="clip0_5075_6415">
<rect width="1312" height="190.925" fill="white"/>
</clipPath>
</defs>
</svg>